<svg xmlns="http://www.w3.org/2000/svg" viewBox="0 0 928 768" role="img" aria-labelledby="title desc">
  <title id="title">Review from Lokesh Chandramurthy</title>
  <desc id="desc">Five-star review for K Dan Safaris with an owner response</desc>
  <rect width="928" height="768" rx="36" fill="#292c34"/>
  <circle cx="94" cy="82" r="33" fill="#c9d4dd"/>
  <circle cx="94" cy="76" r="13" fill="#7894b6"/>
  <path d="M70 105c5-20 43-20 48 0" fill="#7894b6"/>
  <text x="154" y="84" fill="#f2f2f4" font-family="Arial, sans-serif" font-size="34">Lokesh Chandramurthy</text>
  <text x="154" y="124" fill="#b8bac0" font-family="Arial, sans-serif" font-size="29">Local Guide · 78 reviews · 18 photos</text>
  <text x="837" y="83" fill="#efeff2" font-family="Arial, sans-serif" font-size="42">⋮</text>
  <text x="65" y="177" fill="#ffd34d" font-family="Arial, sans-serif" font-size="42" letter-spacing="5">★★★★★</text>
  <text x="252" y="177" fill="#e7e7ea" font-family="Arial, sans-serif" font-size="29">2 days ago</text>
  <rect x="414" y="141" width="99" height="48" rx="24" fill="#454954"/>
  <text x="433" y="175" fill="#eeeeef" font-family="Arial, sans-serif" font-size="26">New</text>
  <text x="65" y="244" fill="#e7e7ea" font-family="Arial, sans-serif" font-size="31">One of the best lifetime experience, where driven by</text>
  <text x="65" y="294" fill="#e7e7ea" font-family="Arial, sans-serif" font-size="31">Dan is most enjoyable...</text>
  <text x="65" y="344" fill="#e7e7ea" font-family="Arial, sans-serif" font-size="31">Keep up the good work and looking forward on one</text>
  <text x="65" y="394" fill="#e7e7ea" font-family="Arial, sans-serif" font-size="31">more trip with you...</text>
  <path d="M65 454c22-21 45 7 45 7s23-28 45-7c17 16 2 41-45 74-47-33-62-58-45-74Z" fill="none" stroke="#e9edf5" stroke-width="5"/>
  <text x="132" y="472" fill="#bfc1c8" font-family="Arial, sans-serif" font-size="27">Press and hold to react</text>
  <path d="M65 531v175" stroke="#4b4e58" stroke-width="5"/>
  <circle cx="130" cy="570" r="31" fill="#7da6e8"/>
  <circle cx="130" cy="559" r="11" fill="#477bd0"/>
  <path d="M108 591c5-19 39-19 44 0" fill="#477bd0"/>
  <text x="194" y="563" fill="#f0f0f2" font-family="Arial, sans-serif" font-size="30">K Dan Safaris (owner)</text>
  <text x="194" y="605" fill="#b8bac0" font-family="Arial, sans-serif" font-size="27">34 minutes ago</text>
  <text x="102" y="657" fill="#e7e7ea" font-family="Arial, sans-serif" font-size="29">Thankyou for your Kind review Lokesh, hope to</text>
  <text x="102" y="702" fill="#e7e7ea" font-family="Arial, sans-serif" font-size="29">see you again soon!</text>
</svg>
